{
  "accessors": [
    {
      "bufferView": 1,
      "componentType": 5126,
      "count": 5664,
      "max": [
        20.2185001373291,
        3.905940055847168,
        20.131999969482422
      ],
      "min": [
        -20.139999389648438,
        -3.7785298824310303,
        -20.14940071105957
      ],
      "type": "VEC3"
    },
    {
      "bufferView": 1,
      "byteOffset": 67968,
      "componentType": 5126,
      "count": 5664,
      "max": [
        0.9997078776359558,
        0.9999710917472839,
        0.9998912215232849
      ],
      "min": [
        -0.9997077584266663,
        -0.9999672174453735,
        -0.9998965263366699
      ],
      "type": "VEC3"
    },
    {
      "bufferView": 0,
      "componentType": 5125,
      "count": 29796,
      "type": "SCALAR"
    },
    {
      "bufferView": 1,
      "byteOffset": 135936,
      "componentType": 5126,
      "count": 744,
      "max": [
        1.998129963874817,
        12.015299797058105,
        11.751899719238281
      ],
      "min": [
        -1.558019995689392,
        -11.173299789428711,
        -11.288299560546875
      ],
      "type": "VEC3"
    },
    {
      "bufferView": 1,
      "byteOffset": 144864,
      "componentType": 5126,
      "count": 744,
      "max": [
        0.9998496174812317,
        0.8153061270713806,
        0.9514552354812622
      ],
      "min": [
        -0.9996492266654968,
        -0.9702643752098083,
        -0.9995467662811279
      ],
      "type": "VEC3"
    },
    {
      "bufferView": 0,
      "byteOffset": 119184,
      "componentType": 5125,
      "count": 1116,
      "type": "SCALAR"
    }
  ],
  "asset": {
    "extras": {
      "author": "Gromelon (https://sketchfab.com/gromelon)",
      "license": "CC-BY-4.0 (http://creativecommons.org/licenses/by/4.0/)",
      "source": "https://sketchfab.com/3d-models/valentine-ring-33350cc566fd4b99a08cdd6c9ea5356f",
      "title": "Valentine Ring"
    },
    "generator": "Sketchfab-12.67.0",
    "version": "2.0"
  },
  "bufferViews": [
    {
      "buffer": 0,
      "byteLength": 123648,
      "name": "floatBufferViews",
      "target": 34963
    },
    {
      "buffer": 0,
      "byteLength": 153792,
      "byteOffset": 123648,
      "byteStride": 12,
      "name": "floatBufferViews",
      "target": 34962
    }
  ],
  "buffers": [
    {
      "byteLength": 277440,
      "uri": "scene.bin"
    }
  ],
  "materials": [
    {
      "alphaMode": "BLEND",
      "doubleSided": true,
      "name": "Stone_-_Ruby",
      "pbrMetallicRoughness": {
        "baseColorFactor": [
          0.3623532,
          0.051764724,
          0.10352958000000001,
          0.7
        ],
        "metallicFactor": 0.0,
        "roughnessFactor": 0.6
      }
    },
    {
      "doubleSided": true,
      "name": "Mat.",
      "pbrMetallicRoughness": {
        "baseColorFactor": [
          0.4321699797,
          0.4321699797,
          0.4321699797,
          1.0
        ],
        "metallicFactor": 0.0,
        "roughnessFactor": 0.6
      }
    }
  ],
  "meshes": [
    {
      "name": "Material1",
      "primitives": [
        {
          "attributes": {
            "NORMAL": 1,
            "POSITION": 0
          },
          "indices": 2,
          "material": 1,
          "mode": 4
        }
      ]
    },
    {
      "name": "Material1",
      "primitives": [
        {
          "attributes": {
            "NORMAL": 4,
            "POSITION": 3
          },
          "indices": 5,
          "material": 0,
          "mode": 4
        }
      ]
    }
  ],
  "nodes": [
    {
      "children": [
        1
      ],
      "matrix": [
        -1.8369701465288538e-16,
        -2.220446049250313e-16,
        1.0,
        0.0,
        1.0,
        -4.078893104450762e-32,
        1.8369701465288538e-16,
        0.0,
        0.0,
        1.0,
        2.220446049250313e-16,
        0.0,
        0.0,
        0.0,
        0.0,
        1.0
      ],
      "name": "Sketchfab_model"
    },
    {
      "children": [
        2,
        4
      ],
      "matrix": [
        1.0,
        0.0,
        0.0,
        0.0,
        0.0,
        -4.371139006309477e-08,
        0.999999999999999,
        0.0,
        0.0,
        -0.999999999999999,
        -4.371139006309477e-08,
        0.0,
        0.0,
        0.0,
        0.0,
        1.0
      ],
      "name": "Collada visual scene group"
    },
    {
      "children": [
        3
      ],
      "name": "anneau"
    },
    {
      "mesh": 0,
      "name": "Material1"
    },
    {
      "children": [
        5
      ],
      "matrix": [
        1.0,
        0.0,
        0.0,
        0.0,
        0.0,
        1.0,
        0.0,
        0.0,
        0.0,
        0.0,
        1.0,
        0.0,
        20.62619972229004,
        0.0,
        0.0,
        1.0
      ],
      "name": "bijou"
    },
    {
      "mesh": 1,
      "name": "Material1"
    }
  ],
  "scene": 0,
  "scenes": [
    {
      "name": "Sketchfab_Scene",
      "nodes": [
        0
      ]
    }
  ]
}
